<svg xmlns="http://www.w3.org/2000/svg" version="1.1" xmlns:xlink="http://www.w3.org/1999/xlink" xmlns:svgjs="http://svgjs.dev/svgjs" width="1500" height="1500" viewBox="0 0 1500 1500"><rect width="1500" height="1500" fill="#ffffff"></rect><g transform="matrix(0.6666666666666666,0,0,0.6666666666666666,249.39419142124416,604.5492494609051)"><svg viewBox="0 0 396 115" data-background-color="#000000" preserveAspectRatio="xMidYMid meet" height="435" width="1500" xmlns="http://www.w3.org/2000/svg" xmlns:xlink="http://www.w3.org/1999/xlink"><g id="tight-bounds" transform="matrix(1,0,0,1,0.23990019718729627,0.1787459034341623)"><svg viewBox="0 0 395.52 114.64230858750625" height="114.64230858750625" width="395.52"><g><svg viewBox="0 0 605.4801233331583 175.4996944345704" height="114.64230858750625" width="395.52"><g transform="matrix(1,0,0,1,0,51.25690755104643)"><svg viewBox="0 0 395.52 72.98587933247752" height="72.98587933247752" width="395.52"><g id="textblocktransform"><svg viewBox="0 0 395.52 72.98587933247752" height="72.98587933247752" width="395.52" id="textblock"><g><svg viewBox="0 0 395.52 72.98587933247752" height="72.98587933247752" width="395.52"><g transform="matrix(1,0,0,1,0,0)"><svg width="395.52" viewBox="5 -28.75 155.79 28.75" height="72.98587933247752" data-palette-color="#89939e"><g class="wordmark-text-0" data-fill-palette-color="primary" id="text-0"><path d="M5 0L5-28.75 10.7-28.75 21-19.05 21-11.5 11.3-20.85 11.3 0 5 0ZM23.25-17.2L33.15-8.1 33.15-28.75 39.45-28.75 39.45 0 33.55 0 23.25-9.9 23.25-17.2ZM48.45-25.3L48.45-25.3 54.3-28.75 64.65-28.75 64.65-23.1 54.75-23.1 54.75-5.85 64.45-5.85 64.45 0 54.3 0 48.45-3.4 48.45-25.3ZM82.9-25.3L82.9-25.3 77.25-28.75 66.9-28.75 66.9-23.1 76.6-23.1 76.6-5.85 66.9-5.85 66.9 0 77.25 0 82.9-3.4 82.9-25.3ZM93.1-28.75L93.1-28.75 103.4-11.5 103.4 0 87.4-26.9 93.1-28.75ZM116.2-28.75L116.2-28.75 105.85-11.5 105.85 0 121.85-26.9 116.2-28.75ZM126.34-25.3L126.34-25.3 132.04-28.75 142.34-28.75 142.34-23.1 132.64-23.1 132.64-17.2 142.34-17.2 142.34-11.5 132.64-11.5 132.64 0 126.34 0 126.34-25.3ZM160.79-25.3L160.79-25.3 154.89-28.75 144.59-28.75 144.59-23.1 154.49-23.1 154.49-17.2 144.59-17.2 144.59-11.5 154.49-11.5 154.49 0 160.79 0 160.79-25.3Z" fill="#000000" data-fill-palette-color="primary"></path></g></svg></g></svg></g></svg></g></svg></g><g transform="matrix(1,0,0,1,429.9804288985879,0)"><svg viewBox="0 0 175.4996944345704 175.4996944345704" height="175.4996944345704" width="175.4996944345704"><g><svg></svg></g><g id="icon-0"><svg viewBox="0 0 175.4996944345704 175.4996944345704" height="175.4996944345704" width="175.4996944345704"><g><path d="M0 87.75c0-48.463 39.287-87.75 87.75-87.75 48.463 0 87.75 39.287 87.75 87.75 0 48.463-39.287 87.75-87.75 87.75-48.463 0-87.75-39.287-87.75-87.75zM87.75 168.918c44.828 0 81.168-36.34 81.168-81.168 0-44.828-36.34-81.168-81.168-81.168-44.828 0-81.168 36.34-81.168 81.168 0 44.828 36.34 81.168 81.168 81.168z" data-fill-palette-color="accent" fill="#000000" stroke="transparent"></path></g><g transform="matrix(1,0,0,1,40.99346044719692,38.99742457613844)"><svg viewBox="0 0 93.51277354017655 97.5048452822935" height="97.5048452822935" width="93.51277354017655"><g><svg xmlns="http://www.w3.org/2000/svg" xmlns:xlink="http://www.w3.org/1999/xlink" version="1.1" x="0" y="0" viewBox="6.9255540508065065 5.2 86.14889189838698 89.82659863237109" enable-background="new 0 0 100 100" xml:space="preserve" height="97.5048452822935" width="93.51277354017655" class="icon-cg-0" data-fill-palette-color="accent" id="cg-0"><g fill="#dedede" data-fill-palette-color="accent"><path d="M55.2 10.3c0 2.6-1.9 4.7-4.3 5.1v20.9l-0.6 0-0.2 0-0.2 0-0.6 0-0.1 0V15.5c-2.5-0.4-4.3-2.6-4.3-5.1 0-2.9 2.3-5.2 5.2-5.2S55.2 7.5 55.2 10.3z" fill="#000000" data-fill-palette-color="accent"></path><path d="M50.4 43.5c0.2 0.1 0.4 0.1 0.5 0.2v7.4c-0.2 0.2-0.5 0.3-0.8 0.4-0.3-0.1-0.7-0.2-0.9-0.4 0 0 0 0 0 0v-7.3c0 0 0 0 0 0 0.1-0.1 0.3-0.2 0.6-0.2l0.1 0c0.1 0 0.2-0.1 0.3-0.1C50.2 43.4 50.3 43.5 50.4 43.5L50.4 43.5z" fill="#000000" data-fill-palette-color="accent"></path><path d="M50.9 59v5.8c-0.1 0.1-0.2 0.2-0.3 0.3-0.1 0.1-0.3 0.2-0.4 0.2l0 0 0 0c0 0 0 0-0.1 0 0 0 0 0-0.1 0l0 0 0 0c-0.1 0-0.3-0.2-0.4-0.2-0.1-0.1-0.3-0.3-0.4-0.4v-5.6c0 0 0.1-0.1 0.1-0.1 0.1-0.1 0.3-0.2 0.4-0.2 0.1 0 0.2-0.1 0.2-0.1h0l0 0c0 0 0.1 0 0.1 0 0 0 0.1 0 0.1 0l0 0c0 0 0 0 0.1 0 0 0 0.1 0 0.1 0 0.1 0 0.1 0 0.2 0.1C50.6 58.8 50.7 58.8 50.9 59L50.9 59z" fill="#000000" data-fill-palette-color="accent"></path><path d="M50.9 73.1v4.5c-0.1 0.1-0.1 0.2-0.2 0.2-0.1 0.1-0.3 0.2-0.5 0.3l0 0c0 0-0.1 0-0.1 0h0c0 0-0.1 0-0.1 0-0.2-0.1-0.4-0.2-0.5-0.3-0.1-0.1-0.2-0.2-0.2-0.3 0-0.1-0.1-0.1-0.1-0.2v-4c0.1-0.1 0.1-0.3 0.3-0.5 0.1-0.1 0.2-0.2 0.3-0.2 0.1 0 0.2-0.1 0.3-0.1h0c0.1 0 0.2 0 0.3 0.1 0.1 0.1 0.2 0.2 0.3 0.2C50.8 72.9 50.8 73 50.9 73.1z" fill="#000000" data-fill-palette-color="accent"></path><path d="M50.9 85.3v4c-0.2 0.1-0.3 0.1-0.5 0.2-0.1 0-0.3 0-0.3 0 0 0 0 0 0 0 0 0 0 0 0 0-0.1 0-0.2 0-0.3 0-0.2 0-0.4-0.1-0.6-0.2v-3.9c0.2-0.1 0.4-0.2 0.5-0.2 0.1 0 0.2-0.1 0.4-0.1l0 0 0 0c0.1 0 0.2 0 0.4 0.1C50.6 85.2 50.8 85.3 50.9 85.3z" fill="#000000" data-fill-palette-color="accent"></path><path d="M93 12.3C93 12.3 93 12.3 93 12.3c-1.6 4-7.3 13.8-23 17.9l0-0.1 0-0.1c0-0.2-0.1-0.5-0.2-0.7-0.1-0.5-0.3-1-0.5-1.4-0.3-0.8-0.8-1.5-1.3-2.3-0.8-1.1-1.8-2-3-2.9-0.9-0.7-1.9-1.2-2.9-1.7-1.5-0.7-3-1.1-4.6-1.4-0.6-0.1-1.1-0.1-1.3-0.1l-0.2 0c-0.1 0-0.2 0-0.3 0-0.4 0-0.9 0-1.2 0.1v-2.5c0.9-0.9 1.7-1.9 2.2-3.1 0.4-0.9 1-1.7 1.7-2.3 1.2-1.1 3.4-1.3 4.9-0.7 4.4 2.1 24.7 2 27.9-0.2C92.1 10.3 93.4 11.2 93 12.3z" fill="#000000" data-fill-palette-color="accent"></path><path d="M7 12.3C7 12.3 7 12.3 7 12.3c1.6 4 7.3 13.8 23 17.9l0-0.1 0-0.1c0-0.2 0.1-0.5 0.2-0.7 0.1-0.5 0.3-1 0.5-1.4 0.3-0.8 0.8-1.5 1.3-2.3 0.8-1.1 1.8-2 3-2.9 0.9-0.7 1.9-1.2 2.9-1.7 1.5-0.7 3-1.1 4.6-1.4 0.6-0.1 1.1-0.1 1.3-0.1l0.2 0c0.1 0 0.2 0 0.3 0 0.4 0 0.9 0 1.2 0.1v-2.5c-0.9-0.9-1.7-1.9-2.2-3.1-0.4-0.9-1-1.7-1.7-2.3-1.2-1.1-3.4-1.3-4.9-0.7-4.4 2.1-24.7 2-27.9-0.2C7.9 10.3 6.6 11.2 7 12.3z" fill="#000000" data-fill-palette-color="accent"></path><path d="M68.5 31.3c-0.2-4.3-3.9-7.4-7.6-9-1.7-0.7-3.8-1.3-5.7-1.1-1.3 0.1-2.3 0.9-2.8 2.2-0.7 1.6-0.7 3.4-0.8 5.2 0 1.5 0.1 3.1 1.3 4.1 0.8 0.7 2 1 3.1 0.6 1.1-0.4 1.8-1.4 1.9-2.5 0.1-0.7 0-1.5 0.4-2.1 0.3-0.5 0.7-0.8 1.3-1 0.9-0.3 1.9-0.3 2.8-0.1 0.5 0.1 0.6 0.3 1 0.7 0.7 0.7 1.3 1.7 1.5 2.7 0.3 1.6-0.6 3-1.8 4-1.9 1.5-4.3 2.2-6.7 2.6-1.9 0.3-3.9 0.5-5.8 0.5-3.8 0-7.7-0.2-11.2-1.8-1.9-0.9-4-2.4-4-4.7 0-1.6 1.1-2.8 2.2-3.8 1.6-0.4 3.9-0.5 4.6 1.4 0.3 0.7 0.1 1.4 0.3 2.2 0.1 0.6 0.4 1.1 0.8 1.5 0.8 0.7 2 0.9 3 0.6 1.2-0.4 2-1.4 2.3-2.7 0.2-0.9 0.1-1.9 0.1-2.8 0-0.9-0.1-1.8-0.3-2.8-0.2-1.3-0.7-2.7-1.9-3.4-1.4-0.8-3.2-0.5-4.6-0.1-2.3 0.5-4.5 1.6-6.3 3-1.8 1.4-3.4 3.5-3.7 5.8-0.3 2.4 0.5 4.8 2.1 6.6 2.3 2.4 5.6 3.6 8.8 4.2-1.5 1.7-2.4 4.1-2.3 6.4 0.1 3.1 1.8 5.8 4.4 7.5-2.2 1.7-3.3 4.2-3.4 6.9-0.1 2.7 1.5 5.4 3.6 7-2 1.5-3.2 3.8-3.3 6.3-0.1 2.6 1.3 5.3 3.4 6.7-1.5 1.5-2.4 3.7-2.2 5.8 0.1 2.3 1.4 4.6 3.4 5.9 0.9 0.6 2 1 3.1 1.2 0.8 0.1 1.7-0.1 2.5-0.3 2.2-0.8 4-2.5 4.8-4.7 1-2.7 0.3-5.8-1.8-7.9 2.1-1.5 3.5-4.1 3.4-6.7 0-2.5-1.3-4.8-3.3-6.3 2.2-1.6 3.6-4.2 3.6-7 0-2.7-1.3-5.3-3.4-6.9 2.6-1.7 4.3-4.4 4.4-7.5 0.1-2.3-0.8-4.7-2.3-6.4C62.3 40.2 68.7 37.2 68.5 31.3zM46 47.9c-0.1-1.8 0.2-3.8 1.6-5.1 0.6-0.5 1.6-1 2.5-1 0.9 0 1.9 0.6 2.5 1.1 1.4 1.3 1.6 3.4 1.5 5.2-0.2 2.3-1.5 4.6-3.9 5.1-0.5 0.1-1.2-0.3-1.7-0.5-0.6-0.3-1-0.8-1.4-1.3C46.4 50.4 46 49.1 46 47.9 46 47.8 46 48.3 46 47.9zM50.5 79.7c-1.8 0.2-3.2-1.3-3.2-3.1 0-1.7-0.3-3.9 1.2-5.1 0.7-0.5 1.5-0.8 2.3-0.5 1.2 0.4 1.8 1.5 2 2.6 0.1 0.8 0 1.7 0 2.6 0 1-0.2 2-0.9 2.7C51.5 79.3 51 79.6 50.5 79.7zM52.7 65c-0.4 1-1.3 1.8-2.4 2-0.8 0.2-1.7-0.4-2.2-1-1.4-1.4-1.2-3.7-1.1-5.5 0.1-1.1 0.4-2.3 1.4-3 0.5-0.4 1.2-0.6 1.9-0.6 0-0.1 1.1 0.3 1.1 0.3 0.5 0.3 1 0.7 1.2 1.2 0.5 0.9 0.5 2 0.5 3C53.1 62.7 53.2 63.9 52.7 65 52.5 65.5 52.8 64.7 52.7 65zM53.8 87.3c0 2-1.6 3.7-3.5 3.9-1.9 0.2-3.6-1.5-3.9-3.3-0.3-2 1.1-4 3.1-4.4 2.1-0.4 4.3 1.5 4.3 3.6C53.8 87.2 53.8 87.3 53.8 87.3z" fill="#000000" data-fill-palette-color="accent"></path></g></svg></g></svg></g></svg></g></svg></g></svg></g><defs></defs></svg><rect width="395.52" height="114.64230858750625" fill="none" stroke="none" visibility="hidden"></rect></g></svg></g></svg>